<svg width="30" height="30" viewBox="0 0 30 30" fill="none" xmlns="http://www.w3.org/2000/svg">
<path d="M27.5 13.875V8.625C27.5 4.25 25.75 2.5 21.375 2.5H16.125C11.75 2.5 10 4.25 10 8.625V10H13.875C18.25 10 20 11.75 20 16.125V20H21.375C25.75 20 27.5 18.25 27.5 13.875Z" stroke="white" stroke-width="1.5" stroke-linecap="round" stroke-linejoin="round"/>
<path d="M20 21.375V16.125C20 11.75 18.25 10 13.875 10H8.625C4.25 10 2.5 11.75 2.5 16.125V21.375C2.5 25.75 4.25 27.5 8.625 27.5H13.875C18.25 27.5 20 25.75 20 21.375Z" stroke="white" stroke-width="1.5" stroke-linecap="round" stroke-linejoin="round"/>
<path d="M7.6001 18.75L10.0376 21.1875L14.9001 16.3125" stroke="white" stroke-width="1.5" stroke-linecap="round" stroke-linejoin="round"/>
</svg>
