<?xml version="1.0" encoding="UTF-8"?>
<svg id="Calque_1" data-name="Calque 1" xmlns="http://www.w3.org/2000/svg" viewBox="0 0 160 287.3">
  <defs>
    <style>
      .cls-1 {
        fill-rule: evenodd;
      }
    </style>
  </defs>
  <path  d="M133.6,211.2v66.6c.5-.1,1.1-.3,1.6-.4,6.5-1.7,13-3.1,19.6-4.2,4-.7,6.7,4,4.2,7.2-1.9,2.3-3.9,4.6-5.9,6.9h-2.2c2.4-2.6,4.6-5.2,6.8-7.9,1.7-2,0-5-2.7-4.6-7.1,1.1-14.1,2.7-21,4.6l-2,.5v-69.5l.6-.5c9.1-7.8,17.5-16.4,25.1-25.7,1.7-2.1,0-5.1-2.7-4.6-7.1,1.1-14.1,2.7-21,4.6l-2,.5v-69.5l.6-.5c9.1-7.8,17.5-16.4,25.1-25.7,1.7-2.1,0-5.1-2.7-4.6-7.1,1.1-14.1,2.7-21,4.6l-2,.5V20.1l.6-.5c7.1-6,13.8-12.6,20-19.6h2.1c-6.5,7.5-13.5,14.4-21,20.8v66.7c.5-.2,1.1-.3,1.6-.4,6.5-1.7,13-3.1,19.6-4.2,4-.7,6.7,4,4.2,7.2-7.7,9.4-16.2,18.1-25.4,25.9v66.6c.5-.1,1.1-.3,1.6-.4,6.5-1.7,13-3.1,19.6-4.2,4-.7,6.7,4,4.2,7.2-7.7,9.4-16.2,18.1-25.4,25.9Z"/>
  <path  d="M2.2,172.7c-1.7,2,0,5,2.7,4.6,9.1-1.5,18-3.6,26.8-6.2l2-.6v42.9c20.7-7.5,40.7-10.5,50.2-11.1l.9,3-27.9,16.1c-20.9,12.1-39.4,27.9-54.7,46.6-1.7,2,0,5,2.7,4.6,9.1-1.5,18-3.6,26.8-6.2l2-.6v21.7h-1.6v-19.6c-.5.2-1,.3-1.6.5-8.3,2.5-16.8,4.4-25.4,5.8-4,.6-6.7-4-4.2-7.2,15.4-18.9,34.1-34.8,55.1-47l27.8-16.1c-1.1,0-2.3.2-3.7.3-10.4,1-28.3,4.1-46.6,10.9-.5.2-1.1.4-1.6.6v-43c-.5.2-1,.3-1.6.5-8.3,2.5-16.8,4.4-25.4,5.8-4,.6-6.7-4-4.2-7.2,15.4-18.9,34.1-34.8,55.1-47l27.8-16.1c-1.1,0-2.3.2-3.7.3-10.4,1-28.3,4.1-46.6,10.9-.5.2-1.1.4-1.6.6v-43c-.5.2-1,.3-1.6.5-8.3,2.5-16.8,4.4-25.4,5.8-4,.7-6.7-4-4.2-7.2,15.4-18.9,34.1-34.8,55.1-47l27.8-16.1c-1.1,0-2.3.2-3.7.3-10.4,1-28.3,4.1-46.6,10.9-.5.2-1.1.4-1.6.6V0h1.6v22.9c20.7-7.5,40.7-10.5,50.2-11.1l.9,2.9-27.9,16.1c-20.9,12.1-39.4,27.9-54.7,46.6-1.7,2,0,5,2.7,4.6,9.1-1.5,18-3.6,26.8-6.2l2-.6v42.9c20.7-7.5,40.7-10.5,50.2-11.1l.9,3-27.9,16.1c-20.9,12.1-39.4,27.9-54.7,46.6Z"/>
</svg>